PathFileType	4	(X/Y/Z)	C:/Users/opensim2020/Desktop/walking_exp_matlab/subject03_walking10_straight_02.trc	
DataRate	CameraRate	NumFrames	NumMarkers	Units	OrigDataRate	OrigDataStartFrame	OrigNumFrames	
100.00	100.00	7	45	mm	100.00	1815	347	
Frame#	Time	LFHD			RFHD			LBHD			RBHD			C7			T10			CLAV			STRN			RBAK			LSHO			LUPA			LELB			LFRM			LWRA			LWRB			LFIN			RSHO			RUPA			RELB			RFRM			RWRA			RWRB			RFIN			LASI			RASI			LPSI			RPSI			LTHI			LKNE			LTIB			LANK			LHEE			LTOE			RTHI			RKNE			RTIB			RANK			RHEE			RTOE			*39			*40			*41			*42			*43			*44			
		X1	Y1	Z1	X2	Y2	Z2	X3	Y3	Z3	X4	Y4	Z4	X5	Y5	Z5	X6	Y6	Z6	X7	Y7	Z7	X8	Y8	Z8	X9	Y9	Z9	X10	Y10	Z10	X11	Y11	Z11	X12	Y12	Z12	X13	Y13	Z13	X14	Y14	Z14	X15	Y15	Z15	X16	Y16	Z16	X17	Y17	Z17	X18	Y18	Z18	X19	Y19	Z19	X20	Y20	Z20	X21	Y21	Z21	X22	Y22	Z22	X23	Y23	Z23	X24	Y24	Z24	X25	Y25	Z25	X26	Y26	Z26	X27	Y27	Z27	X28	Y28	Z28	X29	Y29	Z29	X30	Y30	Z30	X31	Y31	Z31	X32	Y32	Z32	X33	Y33	Z33	X34	Y34	Z34	X35	Y35	Z35	X36	Y36	Z36	X37	Y37	Z37	X38	Y38	Z38	X39	Y39	Z39	X40	Y40	Z40	X41	Y41	Z41	X42	Y42	Z42	X43	Y43	Z43	X44	Y44	Z44	X45	Y45	Z45	

1	0.000	-947.06140	1131.54077	1613.29492	-1079.68835	1139.29419	1615.46289	-942.90015	1263.87292	1584.26880	-1073.65063	1266.57629	1585.37256	-1000.60529	1309.23633	1417.32764	-1000.27240	1339.01367	1102.01660	-998.71429	1186.47705	1340.93176	-988.08112	1140.52539	1176.84424	-1095.06189	1358.00183	1235.88757	-843.54828	1233.87805	1378.45007	-771.40692	1229.38843	1181.18286	-759.06604	1213.78284	1059.08203	-755.30023	1181.24292	932.70087	-781.67120	1156.17981	814.60040	-730.55133	1180.72595	821.04004	-738.85559	1164.09656	736.56519	-1159.09668	1230.16504	1358.28735	-1233.38257	1214.21887	1136.70264	-1249.47644	1189.30933	1027.60645	-1253.53027	1159.04407	893.94397	-1219.99768	1119.63464	801.77161	-1264.07507	1150.66626	794.47760	-1255.02100	1120.71484	725.64612	-873.84393	1188.45410	933.11200	-1110.81982	1162.77209	940.45325	-936.74231	1343.81445	958.52283	-1084.51050	1327.76331	974.75983	-819.53217	1234.24292	631.76764	-833.85901	1216.30542	452.21902	-851.63013	1367.46045	325.28934	-905.01758	1509.35181	178.11832	-951.87067	1555.63489	179.91927	-912.12164	1430.35742	49.41226	-1151.85681	1211.60278	648.85101	-1110.68713	1190.20386	468.52371	-1113.21472	1227.76404	281.72495	-1061.38757	1248.62073	67.25706	-1010.68988	1292.51563	34.83303	-1047.05164	1106.56067	31.61171	-992.94720	1208.26343	1683.09692															 
2	0.010	-947.30847	1124.29431	1612.93115	-1079.99292	1131.81213	1614.95325	-943.35822	1256.74146	1584.45422	-1074.03442	1259.15649	1585.30444	-1001.46552	1302.70056	1417.42957	-1001.42950	1332.99634	1102.12634	-998.72327	1180.06824	1340.82275	-987.93353	1134.50842	1176.65186	-1096.30994	1351.21411	1236.12500	-843.73334	1228.96667	1378.35852	-771.59827	1225.98267	1180.98425	-758.82977	1210.67957	1059.08923	-754.58435	1177.89111	932.53333	-780.36975	1152.89014	814.30029	-729.57172	1178.02539	820.96204	-737.12671	1161.19873	736.61554	-1159.40356	1222.52454	1358.25525	-1234.13855	1205.10352	1136.98059	-1250.35144	1179.50916	1028.03174	-1254.47058	1148.63586	894.54712	-1220.77185	1109.33948	802.49249	-1265.29639	1139.62341	795.17560	-1256.26086	1109.13318	726.77216	-873.47186	1180.46497	934.24011	-1111.32703	1156.38452	940.43683	-937.98029	1338.06860	958.29010	-1085.64441	1321.37402	974.40594	-819.93646	1224.02124	632.32880	-833.58417	1202.05359	453.36731	-851.39227	1352.41406	326.15750	-904.61426	1493.68152	178.44963	-951.69037	1540.29602	179.14243	-909.48376	1413.05579	51.49418	-1151.96558	1206.06555	648.53284	-1110.60840	1185.95984	468.20648	-1113.02063	1225.24268	281.58029	-1061.19006	1248.35559	67.31089	-1010.68280	1292.49890	34.94283	-1046.94287	1106.52234	31.63588	-993.77417	1200.80933	1683.07983															 
3	0.020	-947.48706	1116.99805	1612.59778	-1080.16614	1124.28589	1614.40747	-943.76208	1249.56213	1584.70532	-1074.49402	1251.83582	1585.44653	-1002.32379	1296.23755	1417.59363	-1002.63391	1326.97656	1102.22632	-998.77472	1173.69922	1340.77209	-987.71173	1128.67041	1176.28052	-1097.57837	1344.44226	1236.41992	-843.92151	1224.07971	1378.40906	-771.84058	1222.62024	1180.91553	-758.68390	1207.17896	1059.09863	-753.75604	1174.58826	932.56793	-779.28876	1149.55481	814.15765	-728.76038	1175.29065	821.12085	-735.63452	1158.04114	736.85583	-1159.57397	1214.87878	1358.13147	-1234.69507	1195.93054	1137.32263	-1251.00525	1169.70117	1028.64868	-1255.22363	1138.22900	895.28729	-1221.42249	1099.08020	803.33618	-1266.33960	1128.63525	796.01880	-1257.40405	1097.73755	727.98407	-873.99908	1174.95923	934.92792	-1111.83582	1149.94629	940.39740	-939.15967	1332.24475	958.28717	-1086.73315	1314.92285	974.08423	-820.63507	1213.19226	633.05487	-833.69928	1187.80688	454.55804	-851.32172	1336.86536	326.41574	-904.26526	1477.24683	177.88283	-951.44287	1524.00452	177.33443	-907.74658	1394.59998	52.63520	-1152.01550	1200.49683	648.27045	-1110.53894	1181.84460	467.83276	-1112.82898	1222.87708	281.46829	-1060.99402	1248.13562	67.32841	-1010.69440	1292.46313	35.04673	-1046.83118	1106.47754	31.61250																		 
4	0.030	-947.60272	1109.71851	1612.18933	-1080.29260	1116.75769	1613.85022	-944.04596	1242.50830	1585.13342	-1074.81116	1244.45032	1585.64465	-1003.07257	1289.72363	1417.72620	-1003.93439	1320.97144	1102.41357	-998.10437	1168.74841	1339.82922	-987.51709	1122.71619	1176.40283	-1098.91785	1337.73889	1236.71277	-844.16455	1219.14026	1378.57080	-772.04108	1219.23914	1181.00867	-758.47009	1203.91174	1059.26453	-753.03241	1171.30176	932.73138	-778.28992	1145.96082	814.36975	-728.09406	1172.19629	821.36707	-734.32648	1154.58972	737.25562	-1159.70789	1207.39661	1358.44226	-1235.04370	1186.79443	1137.83069	-1251.43396	1159.91492	1029.41833	-1255.86609	1127.87744	896.19043	-1221.92493	1088.83984	804.24310	-1267.26953	1117.77966	797.03564	-1258.38477	1086.40649	729.23938	-874.64172	1169.37488	935.60236	-1112.36438	1143.50806	940.34772	-940.28754	1326.39490	958.47400	-1087.81018	1308.53992	973.84082	-821.25031	1202.74854	633.82300	-834.03302	1173.49133	455.83109	-851.35529	1320.73059	325.99210	-903.86279	1459.86853	176.23746	-950.84399	1507.25549	174.87169	-906.82953	1375.05713	53.04782	-1151.98560	1194.78040	647.91711	-1110.52930	1177.83667	467.45621	-1112.76526	1220.53479	281.29736	-1060.88110	1247.91956	67.40732	-1010.65558	1292.44995	35.18817	-1046.77307	1106.43054	31.59866																		 
5	0.040	-947.61951	1102.41321	1611.78552	-1080.33142	1109.21594	1613.26953	-944.25745	1235.38794	1585.56116	-1075.03625	1237.08398	1585.91907	-1003.84808	1283.33447	1417.94434	-1005.21820	1314.90479	1102.59253	-997.99225	1162.49219	1339.76440	-987.31506	1116.86755	1176.26257	-1100.19702	1330.87500	1237.04114	-844.36139	1214.20435	1378.74915	-772.19983	1215.90039	1181.19446	-758.24048	1200.69226	1059.48730	-752.39124	1168.03625	933.06158	-777.46826	1142.49866	814.73700	-727.46063	1169.04639	821.65997	-733.29236	1150.98547	737.75671	-1159.77063	1199.92175	1358.76978	-1235.33936	1177.74280	1138.47327	-1251.66895	1150.17065	1030.26758	-1256.34070	1117.63208	897.20087	-1222.32434	1078.66882	805.26593	-1268.06738	1106.96899	798.16882	-1259.23926	1075.29333	730.59821	-875.17316	1163.54565	936.51038	-1112.87915	1137.10876	940.21655	-941.26758	1320.49561	958.64996	-1088.82874	1302.17236	973.63214	-822.05798	1192.39893	634.60724	-834.71466	1159.21802	457.23828	-851.72009	1303.96057	325.02133	-903.50812	1441.83997	173.76794	-950.29791	1489.56177	171.12946	-906.21014	1354.33057	53.20815	-1152.01746	1189.19250	647.62549	-1110.56885	1173.91479	467.04349	-1112.64868	1218.33020	281.12741	-1060.76074	1247.71558	67.42156	-1010.66534	1292.44336	35.32891	-1046.71997	1106.39233	31.57256																		 
6	0.050	-947.58514	1095.13306	1611.29297	-1080.28479	1101.66711	1612.69055	-944.46155	1228.31030	1586.05518	-1075.22559	1229.73413	1586.26563	-1004.50775	1276.89282	1418.13635	-1006.46375	1308.86816	1102.74536	-997.81549	1156.24219	1339.83752	-987.13477	1111.02600	1176.19604	-1101.45764	1323.93286	1237.42029	-844.65295	1209.25940	1378.92126	-772.29163	1212.44153	1181.44275	-757.95984	1197.63513	1059.72864	-751.73016	1164.70471	933.39893	-776.34918	1137.95605	815.35876	-726.99896	1165.78711	821.99713	-732.44397	1147.14905	738.22418	-1159.81458	1192.49780	1359.19385	-1235.52979	1168.79907	1139.18103	-1251.80420	1140.51636	1031.17188	-1256.64844	1107.51526	898.34143	-1222.64795	1068.50854	806.39844	-1268.59924	1096.30811	799.29547	-1259.87793	1064.39197	731.89496	-875.86572	1157.87073	937.20386	-1113.32593	1130.74304	940.11285	-942.15240	1314.59998	958.87927	-1089.86694	1295.83167	973.34650	-822.83484	1181.62573	635.28876	-835.63306	1144.90369	458.70560	-851.68402	1287.39319	323.85635	-903.15039	1423.18152	170.53506	-949.52759	1471.33630	166.51297	-906.55115	1332.32214	52.79555	-1152.08350	1183.45129	646.88794	-1110.61340	1170.03296	466.60876	-1112.65881	1216.05115	281.01035	-1060.74304	1247.55676	67.53239	-1010.71222	1292.40881	35.51138	-1046.68433	1106.36243	31.56263																		 
7	0.060	-947.38007	1087.90686	1610.80310	-1080.13098	1094.10095	1612.08020	-944.58435	1221.22046	1586.45386	-1075.36792	1222.37732	1586.60632	-1005.14771	1270.48669	1418.32617	-1007.70752	1302.83130	1102.91272	-997.68848	1150.03406	1339.77002	-986.97174	1105.13196	1176.12000	-1102.76257	1316.94397	1237.78296	-844.91998	1204.25562	1379.04553	-772.33508	1208.89600	1181.71924	-757.65253	1194.60120	1059.96179	-751.07593	1161.47412	933.74536	-775.34442	1133.49536	815.98804	-726.54327	1162.34473	822.27777	-731.86340	1143.08948	738.65582	-1159.82813	1185.07788	1359.66443	-1235.71936	1159.98840	1139.93628	-1251.84668	1130.98438	1032.10120	-1256.91589	1097.41138	899.45789	-1222.85376	1058.41211	807.52002	-1268.96887	1085.84644	800.46667	-1260.33521	1053.60547	733.15527	-876.51227	1152.08899	937.87115	-1113.77710	1124.50122	939.97723	-942.89746	1308.59290	959.06891	-1090.67725	1289.50854	973.16382	-823.65753	1171.45898	636.36462	-836.83112	1130.74316	460.41116	-851.99524	1270.23853	322.24170	-902.89136	1403.76416	166.49580	-948.71674	1452.42358	160.89410	-907.16162	1309.16382	52.13668	-1151.85828	1177.76477	646.31653	-1110.65454	1166.10693	466.16592	-1112.66333	1213.70947	280.86105	-1060.53015	1247.10425	67.41488	-1010.65363	1292.48242	35.80925	-1046.64514	1106.29468	31.53073	-995.88531	1161.82861	1683.74609															 
